<svg xmlns:dc="http://purl.org/dc/elements/1.1/" xmlns:cc="http://creativecommons.org/ns#" xmlns:rdf="http://www.w3.org/1999/02/22-rdf-syntax-ns#" xmlns:svg="http://www.w3.org/2000/svg" xmlns="http://www.w3.org/2000/svg" xmlns:sodipodi="http://sodipodi.sourceforge.net/DTD/sodipodi-0.dtd" xmlns:inkscape="http://www.inkscape.org/namespaces/inkscape" version="1.1" viewBox="0 0 100 125" fill="none" stroke="none" stroke-linecap="square" stroke-miterlimit="10" x="0px" y="0px"><clipPath id="p.0"><path d="m0 0l100.0 0l0 100.0l-100.0 0l0 -100.0z" clip-rule="nonzero"/></clipPath><g clip-path="url(#p.0)"><path fill="none" fill-opacity="1" d="m0 0l100.0 0l0 100.0l-100.0 0z" fill-rule="nonzero" style=""/><path fill="#000000" d="m49.432487 24.175255c4.8355446 0 9.136063 1.0091 12.901558 3.0272942c3.7519455 2.004654 6.643791 4.991314 8.675537 8.95998c2.0317383 3.955124 3.0476074 8.614582 3.0476074 13.978382c0 8.208233 -2.234909 14.628536 -6.7047424 19.260906c-4.4698296 4.63237 -10.280613 6.948555 -17.432343 6.948555c-5.648239 0 -10.449921 -1.5102615 -14.405045 -4.5307846c-3.968666 -3.0340652 -6.562525 -7.0907745 -7.7815685 -12.170128l7.4971256 -2.1942825c0.8939667 3.6165009 2.7225342 6.4812546 5.4857025 8.594269c2.7631645 2.1130066 5.973316 3.1695175 9.630451 3.1695175c4.5511017 0 8.262413 -1.5915375 11.133942 -4.774597c2.8579865 -3.1966095 4.2869797 -7.9034767 4.2869797 -14.120602c0 -6.2171288 -1.5102692 -10.991718 -4.5307884 -14.323776c-3.0340652 -3.3320541 -6.8876 -4.998083 -11.560608 -4.998083c-3.2101517 0 -6.000408 0.8059273 -8.370773 2.4177723c-2.3839073 1.5983047 -4.1853867 3.9009438 -5.4044304 6.907921l-7.253319 -1.7676163c1.3003159 -4.4291954 3.7384033 -7.930561 7.31427 -10.504101c3.575863 -2.587082 8.066013 -3.8806267 13.470444 -3.8806267zm0.54857254 -12.556161c-6.4203033 0 -12.698383 1.6592541 -18.834244 4.977767c-6.1358585 3.304966 -10.917221 8.038923 -14.344093 14.201872c-3.4404135 6.1494064 -5.1606236 12.55616 -5.1606236 19.220272c0 6.623478 1.686346 12.976051 5.0590363 19.057732c3.3726902 6.0681305 8.1066475 10.8020935 14.201872 14.201874c6.0952225 3.3862305 12.454575 5.0793533 19.078053 5.0793533c6.623474 0 12.982826 -1.6931229 19.078053 -5.0793533c6.0952225 -3.3997803 10.842728 -8.133743 14.2425 -14.201874c3.386238 -6.0816803 5.079361 -12.434261 5.0793533 -19.057732c0 -6.664112 -1.7269745 -13.070866 -5.1809387 -19.220272c-3.4539566 -6.1629486 -8.235321 -10.896906 -14.344093 -14.201872c-6.1223145 -3.318513 -12.413937 -4.977767 -18.874874 -4.977767zm0 -7.61903c7.7206154 0 15.258373 1.984333 22.613277 5.953002c7.354904 3.955122 13.097961 9.623678 17.229172 17.005674c4.1176605 7.36845 6.176491 15.0552025 6.176491 23.060265c0 7.92379 -2.0317383 15.542824 -6.0952225 22.857094c-4.063484 7.3142624 -9.738815 12.996368 -17.025993 17.046303c-7.300728 4.036392 -14.9333 6.054596 -22.897724 6.054596c-7.964428 0 -15.590229 -2.0182037 -22.877409 -6.054596c-7.300722 -4.0499344 -12.96928 -9.73204 -17.005674 -17.046303c-4.0499415 -7.31427 -6.074907 -14.933304 -6.074907 -22.857094c0 -8.005062 2.0520587 -15.691814 6.156176 -23.060265c4.1041174 -7.3819904 9.833629 -13.0505495 17.18853 -17.005674c7.354906 -3.968669 14.892664 -5.953002 22.613283 -5.953002z" fill-rule="evenodd" style="" stroke="none" fill-opacity="1"/></g><text x="0" y="115" fill="#000000" font-size="5px" font-weight="bold" font-family="'Helvetica Neue', Helvetica, Arial-Unicode, Arial, Sans-serif">Created by Jonathan Conway</text><text x="0" y="120" fill="#000000" font-size="5px" font-weight="bold" font-family="'Helvetica Neue', Helvetica, Arial-Unicode, Arial, Sans-serif">from the Noun Project</text></svg>